<svg width="1024" height="1024" viewBox="0 0 1024 1024" fill="none" xmlns="http://www.w3.org/2000/svg">
  <defs>
    <linearGradient id="g1" x1="0" y1="0" x2="1" y2="1">
      <stop offset="0" stop-color="#AA367C"></stop>
      <stop offset="1" stop-color="#4A2FBD"></stop>
    </linearGradient>
    <linearGradient id="g2" x1="0" y1="0" x2="1" y2="1">
      <stop offset="0" stop-color="#7C3AED"></stop>
      <stop offset="1" stop-color="#A78BFA"></stop>
    </linearGradient>
    <radialGradient id="glow" cx="50%" cy="50%" r="65%">
      <stop offset="0" stop-color="#AA367C" stop-opacity=".35"></stop>
      <stop offset="1" stop-color="#4A2FBD" stop-opacity="0"></stop>
    </radialGradient>
  </defs>

  <circle cx="512" cy="540" r="420" fill="url(#glow)"></circle>
  <rect x="170" y="270" rx="28" ry="28" width="684" height="440" fill="#141414" stroke="url(#g1)" stroke-width="4"></rect>
  <rect x="200" y="300" rx="18" ry="18" width="624" height="380" fill="#0F0F0F" stroke="rgba(255,255,255,.08)"></rect>

  <g>
    <rect x="232" y="340" rx="14" ry="14" width="280" height="80" fill="url(#g1)"></rect>
    <circle cx="252" cy="380" r="10" fill="white" opacity=".9"></circle>
    <rect x="262" y="366" rx="6" ry="6" width="220" height="28" fill="white" opacity=".95"></rect>
  </g>
  <g>
    <rect x="512" y="440" rx="14" ry="14" width="280" height="80" fill="#202020" stroke="rgba(255,255,255,.08)"></rect>
    <circle cx="532" cy="480" r="10" fill="url(#g2)" opacity=".9"></circle>
    <rect x="542" y="466" rx="6" ry="6" width="220" height="28" fill="white" opacity=".8"></rect>
  </g>

  <g transform="translate(720,330) rotate(-12)">
    <path d="M6 58 L108 6 L86 96 L64 70 L36 86 Z" fill="url(#g2)"></path>
    <path d="M108 6 L64 70" stroke="white" stroke-opacity=".8" stroke-width="3"></path>
  </g>

  <g fill="white" opacity=".35">
    <circle cx="160" cy="230" r="3"></circle><circle cx="200" cy="210" r="2"></circle>
    <circle cx="860" cy="250" r="3"></circle><circle cx="820" cy="220" r="2"></circle>
    <circle cx="190" cy="760" r="2"></circle><circle cx="840" cy="760" r="2"></circle>
  </g>
</svg>
