<?xml version="1.0" standalone="no"?>
<!DOCTYPE svg PUBLIC "-//W3C//DTD SVG 20010904//EN"
 "http://www.w3.org/TR/2001/REC-SVG-20010904/DTD/svg10.dtd">
<svg version="1.0" xmlns="http://www.w3.org/2000/svg"
 width="1024.000000pt" height="1024.000000pt" viewBox="0 0 1024.000000 1024.000000"
 preserveAspectRatio="xMidYMid meet">
<metadata>
Created by potrace 1.16, written by Peter Selinger 2001-2019
</metadata>
<g transform="translate(0.000000,1024.000000) scale(0.100000,-0.100000)"
fill="#000000" stroke="none">
<path d="M0 5120 l0 -5120 5120 0 5120 0 0 5120 0 5120 -5120 0 -5120 0 0
-5120z m3127 1711 c232 -18 452 -40 581 -57 l42 -5 0 -320 0 -319 -1082 0
c-666 0 -1110 -4 -1153 -10 -255 -37 -380 -167 -379 -395 0 -187 119 -314 342
-367 82 -19 130 -21 772 -28 748 -8 798 -11 1027 -70 233 -61 416 -163 563
-316 104 -108 139 -157 196 -279 57 -120 93 -260 103 -400 26 -365 -82 -672
-316 -895 -96 -93 -155 -132 -284 -194 -173 -83 -388 -134 -655 -156 -157 -13
-1406 -13 -1666 0 -257 13 -540 36 -783 64 l-190 21 0 320 0 320 1245 5 c1394
6 1312 1 1455 78 53 29 81 53 115 98 64 83 83 151 78 268 -3 80 -8 102 -36
158 -38 78 -92 130 -177 169 -128 60 -138 61 -875 69 -736 8 -790 12 -1015 70
-328 85 -564 250 -713 500 -206 345 -197 835 20 1168 205 314 549 481 1072
522 61 4 412 7 781 5 562 -3 712 -7 932 -24z m1933 -1906 l0 -1905 -25 0 -25
0 0 1905 0 1905 25 0 25 0 0 -1905z m3355 1880 c330 -37 574 -115 770 -248 84
-58 218 -188 287 -281 198 -266 270 -627 197 -988 -49 -245 -161 -452 -335
-619 -172 -164 -378 -270 -658 -339 -247 -60 -278 -63 -1021 -69 l-680 -6 -3
-618 -2 -617 -545 2 -545 3 0 1895 c0 1042 0 1896 0 1898 0 1 541 2 1203 2
986 0 1225 -3 1332 -15z"/>
<path d="M6982 6037 c-9 -11 -12 -131 -10 -503 l3 -489 545 0 c539 0 546 0
625 23 111 32 187 76 249 143 89 96 126 195 126 340 0 139 -41 247 -129 336
-64 65 -150 108 -271 135 -88 19 -135 21 -610 25 -445 4 -518 3 -528 -10z"/>
</g>
</svg>
